HIERARCHY
ROOT Hips
{
    OFFSET 0.000000 0.000000 0.000000
    CHANNELS 6 Xposition Yposition Zposition Zrotation Xrotation Yrotation
    JOINT Spine
    {
        OFFSET -0.000000 0.081343 0.000000
        CHANNELS 3 Zrotation Xrotation Yrotation
        JOINT Spine1
        {
            OFFSET -0.000000 0.243280 0.000000
            CHANNELS 3 Zrotation Xrotation Yrotation
            JOINT Neck
            {
                OFFSET -0.000000 0.242281 0.022026
                CHANNELS 3 Zrotation Xrotation Yrotation
                JOINT Head
                {
                    OFFSET -0.000000 0.149025 -0.021289
                    CHANNELS 3 Zrotation Xrotation Yrotation
                    End Site
                    {
                        OFFSET -0.000000 0.198396 0.000000
                    }
                }
            }
            JOINT LeftShoulder
            {
                OFFSET 0.039707 0.224479 -0.002125
                CHANNELS 3 Zrotation Xrotation Yrotation
                JOINT LeftArm
                {
                    OFFSET 0.116942 0.000000 0.000000
                    CHANNELS 3 Zrotation Xrotation Yrotation
                    JOINT LeftForeArm
                    {
                        OFFSET 0.282002 0.000000 0.000000
                        CHANNELS 3 Zrotation Xrotation Yrotation
                        JOINT LeftHand
                        {
                            OFFSET 0.358743 0.000000 0.000000
                            CHANNELS 3 Zrotation Xrotation Yrotation
                            End Site
                            {
                                OFFSET 0.148797 0.000000 0.000000
                            }
                        }
                    }
                }
            }
            JOINT RightShoulder
            {
                OFFSET -0.039404 0.224479 -0.002125
                CHANNELS 3 Zrotation Xrotation Yrotation
                JOINT RightArm
                {
                    OFFSET -0.116942 0.000000 0.000000
                    CHANNELS 3 Zrotation Xrotation Yrotation
                    JOINT RightForeArm
                    {
                        OFFSET -0.282002 0.000000 0.000000
                        CHANNELS 3 Zrotation Xrotation Yrotation
                        JOINT RightHand
                        {
                            OFFSET -0.358743 0.000000 0.000000
                            CHANNELS 3 Zrotation Xrotation Yrotation
                            End Site
                            {
                                OFFSET -0.148797 0.000000 0.000000
                            }
                        }
                    }
                }
            }
        }
    }
    JOINT LeftUpLeg
    {
        OFFSET 0.099198 0.000000 0.000000
        CHANNELS 3 Zrotation Xrotation Yrotation
        JOINT LeftLeg
        {
            OFFSET -0.000000 -0.332973 0.000000
            CHANNELS 3 Zrotation Xrotation Yrotation
            JOINT LeftFoot
            {
                OFFSET -0.000000 -0.491254 0.000000
                CHANNELS 3 Zrotation Xrotation Yrotation
                JOINT LeftToeBase
                {
                    OFFSET -0.000000 -0.064479 0.148797
                    CHANNELS 3 Zrotation Xrotation Yrotation
                    End Site
                    {
                        OFFSET -0.000000 0.000000 0.039679
                    }
                }
            }
        }
    }
    JOINT RightUpLeg
    {
        OFFSET -0.099198 0.000000 0.000000
        CHANNELS 3 Zrotation Xrotation Yrotation
        JOINT RightLeg
        {
            OFFSET -0.000000 -0.332973 0.000000
            CHANNELS 3 Zrotation Xrotation Yrotation
            JOINT RightFoot
            {
                OFFSET -0.000000 -0.491254 0.000000
                CHANNELS 3 Zrotation Xrotation Yrotation
                JOINT RightToeBase
                {
                    OFFSET -0.000000 -0.064479 0.148797
                    CHANNELS 3 Zrotation Xrotation Yrotation
                    End Site
                    {
                        OFFSET -0.000000 0.000000 0.039679
                    }
                }
            }
        }
    }
}
MOTION
Frames:    13
Frame Time:    0.010000
-0.335384    0.888660    0.572290    4.798831    0.240594    115.907509    -6.351889    1.938092    -4.196558    6.720362    10.187050    -2.031061    -5.932642    8.572955    -6.328928    11.053869    -9.744358    -3.670038    -7.913575    26.313787    -1.792176    -22.796148    27.727226    -36.553425    35.630756    10.596197    -43.138340    28.929438    21.202810    -13.842213    7.544524    25.605053    11.478207    32.482567    26.584965    34.829079    -20.890348    10.797080    41.925083    3.495164    18.771566    4.874171    -2.052035    1.321606    -5.803896    -5.394168    12.331761    2.959631    8.249713    -17.092882    13.810035    0.000000    0.000000    0.000000    -7.902307    -13.850776    -2.961139    7.728525    36.778427    -7.780537    6.701242    -6.185238    -6.521160    0.000000    0.000000    0.000000    
-0.331381    0.888564    0.567269    4.875126    0.483577    117.373459    -6.257419    1.946711    -4.507638    6.332858    10.555249    -2.119970    -5.717436    8.473598    -6.708018    11.279256    -9.824389    -4.016993    -7.898129    26.442608    -1.874207    -22.873180    27.479795    -37.014130    36.023304    10.776833    -43.460320    28.603102    21.711805    -13.751968    7.900545    25.474323    10.991619    32.775356    26.666948    34.357666    -21.183260    10.647716    41.806911    3.207279    18.699875    4.779747    -2.345421    2.110399    -6.144552    -5.157991    11.864934    2.022058    8.360158    -17.022760    13.701285    0.000000    0.000000    0.000000    -6.185963    -14.814770    -6.172017    1.733214    37.210506    -4.328662    8.432113    -5.450166    -2.956595    0.000000    0.000000    0.000000    
-0.327337    0.888475    0.562226    4.928961    0.690855    118.781776    -6.154212    1.968992    -4.782826    6.058508    10.770960    -2.197319    -5.664716    8.610589    -7.091547    11.572724    -10.058577    -4.338460    -8.001451    26.687916    -1.965443    -22.943409    27.254837    -37.426853    36.350845    10.879077    -43.757568    28.402134    22.080597    -13.731082    8.059148    25.423309    10.620070    32.972923    28.314169    33.258163    -23.147308    9.005312    42.109833    3.585882    17.938330    4.587415    -2.983214    2.571006    -5.579216    -4.152284    11.993428    1.545702    7.793739    -17.213373    12.220942    0.000000    0.000000    0.000000    -5.484442    -15.399831    -5.687766    1.152687    36.811386    -4.422864    8.180282    -5.543461    -2.746219    0.000000    0.000000    0.000000    
-0.323293    0.888411    0.556794    5.023153    0.897751    120.134758    -5.897895    2.022492    -5.028962    5.621294    10.971460    -2.247123    -5.644693    8.729330    -7.454685    12.002635    -10.235735    -4.608446    -8.153406    26.934025    -1.987551    -22.660290    27.696007    -37.965328    37.119999    10.610015    -43.663742    27.864948    22.246611    -13.443407    8.259058    25.385729    10.245710    33.438526    28.386896    32.694168    -24.398039    9.649184    41.773693    4.633366    18.943907    3.186655    -3.260196    3.311886    -5.807622    -3.808721    11.721173    0.791406    7.702778    -17.253107    11.828720    0.000000    0.000000    0.000000    -4.956518    -15.902888    -4.661659    0.866080    36.227024    -3.821282    8.854805    -5.600629    -2.874860    0.000000    0.000000    0.000000    
-0.319051    0.888232    0.551570    5.092781    1.157498    121.545174    -5.779971    2.087122    -5.315808    5.296730    11.193001    -2.321942    -5.575243    8.831746    -7.817633    12.285568    -10.407887    -4.914233    -8.301367    27.176195    -2.007338    -22.906862    27.461378    -38.291023    37.497978    10.746007    -44.029312    27.638659    22.723793    -13.319253    8.458613    25.339062    9.857139    33.782700    28.643135    32.277927    -24.652988    9.372898    41.299225    4.128160    18.655649    3.367402    -3.513109    4.004141    -5.841853    -3.526009    11.531491    -0.259782    8.100101    -17.282974    11.553406    0.000000    0.000000    0.000000    -5.419115    -15.773775    -0.874347    5.692221    34.488789    -8.175821    6.047834    -6.314897    -5.628752    0.000000    0.000000    0.000000    
-0.315663    0.887741    0.547909    4.962261    0.921961    123.020782    -5.732347    2.219641    -5.599759    5.769373    10.780489    -2.447990    -6.001288    9.044918    -8.240695    12.855420    -10.527098    -5.192774    -8.844634    27.726179    -1.956343    -23.021465    27.257992    -38.743385    38.005508    10.934232    -44.315666    27.506958    23.189808    -13.531301    8.003826    25.489336    9.537362    34.674530    28.443182    31.651659    -24.519918    8.614540    41.548706    6.519396    17.863745    0.803972    -3.277462    3.870670    -5.749323    -3.409402    11.834856    -1.460389    8.317558    -17.565483    11.236989    0.000000    0.000000    0.000000    -4.613446    -16.725088    0.040217    5.645188    33.756817    -8.364628    5.882789    -6.225414    -6.166436    0.000000    0.000000    0.000000    
-0.310999    0.887844    0.542306    5.225730    1.123854    124.461754    -5.294126    2.407686    -5.849203    5.277068    10.961849    -2.492980    -5.961996    9.202165    -8.639128    13.228286    -10.674877    -5.516650    -9.039737    28.161535    -1.950076    -23.287485    26.787413    -38.978230    38.277325    10.989987    -44.990543    27.010942    23.793440    -12.984487    8.260602    25.379364    9.126193    35.246613    28.458853    31.094954    -25.080975    9.388518    40.869976    3.413811    18.706263    3.298602    -3.339834    4.701224    -5.817360    -3.131488    11.690625    -2.479280    8.423044    -17.510826    10.982346    0.000000    0.000000    0.000000    -4.259865    -16.704334    1.228823    6.158954    32.563541    -8.601885    5.585783    -6.377492    -7.111586    0.000000    0.000000    0.000000    
-0.307174    0.887238    0.537421    5.116245    1.255895    125.793449    -5.056980    2.399939    -6.080059    4.801933    11.010763    -2.524578    -5.904467    9.322224    -9.007675    13.683448    -10.803686    -5.790295    -9.200685    28.532154    -1.841535    -23.534645    26.532940    -39.355175    38.471458    11.045303    -45.359776    26.783541    24.131454    -12.819787    8.619731    24.983770    8.883679    35.912964    28.708633    30.128586    -25.355417    9.368904    40.560467    3.111474    18.704348    3.232714    -3.495978    4.945549    -5.620297    -2.908035    11.845535    -3.671301    8.600229    -17.615307    10.748720    0.000000    0.000000    0.000000    -3.894007    -17.382236    1.887688    6.062000    31.818195    -8.764577    6.176337    -6.578144    -7.723834    0.000000    0.000000    0.000000    
-0.303727    0.886202    0.533743    4.862470    0.739038    126.915878    -4.671586    2.050578    -6.179327    4.881886    10.847548    -2.550993    -6.052134    9.532547    -9.384408    14.044768    -10.982316    -6.079729    -9.641317    29.184334    -1.693579    -23.765545    26.073256    -39.805847    38.735107    11.229131    -45.785698    26.158522    24.713238    -12.518217    8.532706    25.015190    8.535379    36.402950    28.829527    29.650381    -25.872446    9.442070    40.180412    3.143021    18.869026    3.100023    -2.858286    4.571655    -5.735499    -3.315053    12.103915    -5.064497    9.325644    -18.020023    11.268064    0.000000    0.000000    0.000000    -2.936798    -18.715446    2.873799    5.908782    31.072374    -9.213248    6.252543    -6.430817    -8.120112    0.000000    0.000000    0.000000    
-0.300812    0.886401    0.526809    4.720931    1.387928    128.643799    -4.566092    2.373614    -6.723372    4.221536    10.840340    -2.672839    -6.095736    9.679118    -9.770692    14.535668    -11.137445    -6.353436    -9.919562    29.412798    -1.583333    -24.050684    26.034218    -40.005344    38.963802    11.330792    -46.140385    25.526449    25.110529    -12.523078    8.617434    25.295490    8.151272    36.714603    28.797554    29.537310    -26.195940    9.419881    39.580494    3.087009    18.818699    3.262179    -3.707007    5.225522    -6.641882    -2.860116    12.068794    -5.544639    10.053596    -16.717356    9.719748    0.000000    0.000000    0.000000    -3.642593    -18.902920    3.133438    6.402824    30.108032    -9.613677    6.102418    -6.533863    -8.697002    0.000000    0.000000    0.000000    
-0.294279    0.886698    0.517977    4.956226    2.442532    129.163803    -4.620490    1.995404    -6.440842    3.273301    12.171872    -2.522321    -6.111866    10.078813    -10.112919    15.222466    -11.627028    -6.505762    -9.886131    29.619062    -1.693204    -24.332088    25.904507    -40.130642    39.189865    11.394915    -46.442215    24.357502    25.634886    -11.885391    8.725759    25.150770    8.429593    37.392017    28.756172    28.833389    -26.408804    9.269700    38.873196    2.691515    18.577391    3.928505    -4.913688    7.237777    -6.026681    -2.050400    11.222747    -5.697773    8.655612    -16.816048    10.293171    0.000000    0.000000    0.000000    -3.870607    -18.110218    4.044814    6.341195    28.712414    -9.441933    5.992537    -7.102391    -9.030006    0.000000    0.000000    0.000000    
-0.289881    0.887208    0.509898    4.937441    3.407762    130.226501    -4.821695    2.394621    -6.397337    2.751961    12.340436    -2.462924    -6.011674    10.223705    -10.547270    15.460962    -11.727057    -6.903037    -10.157825    29.512459    -1.473248    -24.727982    25.660275    -40.225143    38.542881    11.809645    -47.358116    24.379902    26.081938    -11.858635    8.692842    24.959986    8.351980    38.523136    28.310183    27.725803    -26.527218    9.615443    38.715797    2.343231    18.908915    4.375041    -5.918426    8.554332    -6.480953    -1.710455    10.834024    -5.189063    8.440205    -16.031345    9.288734    0.000000    0.000000    0.000000    -4.476275    -17.811241    4.401217    6.051439    27.769154    -8.287914    6.736443    -7.477822    -9.492633    0.000000    0.000000    0.000000    
-0.285504    0.886792    0.503917    4.881497    3.580658    131.177963    -4.728569    2.261664    -6.420445    2.678172    12.607383    -2.466469    -6.306379    10.381227    -10.910712    16.015123    -11.751832    -7.137354    -10.637256    29.960497    -1.224742    -24.734459    25.471474    -40.616524    38.474308    11.956812    -47.727386    24.239925    26.354500    -11.788935    8.697017    24.879198    7.904939    38.607883    28.911547    27.552126    -27.195162    9.637373    38.036949    3.023307    19.017860    4.470097    -5.820100    9.232339    -7.175376    -2.126676    10.612924    -7.891390    9.757975    -15.525458    12.121773    0.000000    0.000000    0.000000    -4.303103    -18.168625    5.377765    6.373289    26.587139    -8.759289    6.031504    -7.588993    -9.989666    0.000000    0.000000    0.000000    
